<svg width="300" height="50" viewBox="0 0 300 50" fill="none" xmlns="http://www.w3.org/2000/svg">
<path d="M86.9424 0H98.4702C102.405 0 105.276 0.925926 107.081 2.77778C108.887 4.58333 109.79 7.38426 109.79 11.1806V13.125C109.79 15.625 109.373 17.662 108.54 19.2361C107.753 20.8102 106.526 21.9444 104.859 22.6389V22.7778C108.655 24.0741 110.553 27.4537 110.553 32.9167V37.0833C110.553 40.8333 109.558 43.7037 107.567 45.6944C105.623 47.6389 102.753 48.6111 98.9563 48.6111H87.6368C87.2533 48.6111 86.9424 48.3002 86.9424 47.9167V0ZM97.5674 19.7917C99.0952 19.7917 100.229 19.3981 100.97 18.6111C101.757 17.8241 102.151 16.5046 102.151 14.6528V11.9444C102.151 10.1852 101.827 8.91204 101.178 8.125C100.577 7.33796 99.6044 6.94445 98.2618 6.94445H94.5813V19.7917H97.5674ZM98.9563 41.6667C100.299 41.6667 101.294 41.3194 101.942 40.625C102.591 39.8843 102.915 38.6343 102.915 36.875V32.6389C102.915 30.4167 102.521 28.8889 101.734 28.0556C100.993 27.1759 99.7433 26.7361 97.984 26.7361H94.5813V41.6667H98.9563Z" fill="#0245CA"/>
<path d="M125.622 50C121.872 50 119.001 48.9352 117.011 46.8055C115.02 44.6759 114.024 41.6667 114.024 37.7778V12.2222C114.024 8.33333 115.02 5.32407 117.011 3.19444C119.001 1.06481 121.872 0 125.622 0C129.372 0 132.242 1.06481 134.233 3.19444C136.223 5.32407 137.219 8.33333 137.219 12.2222V37.7778C137.219 41.6667 136.223 44.6759 134.233 46.8055C132.242 48.9352 129.372 50 125.622 50ZM125.622 43.0555C128.261 43.0555 129.58 41.4583 129.58 38.2639V11.7361C129.58 8.54167 128.261 6.94444 125.622 6.94444C122.983 6.94444 121.663 8.54167 121.663 11.7361V38.2639C121.663 41.4583 122.983 43.0555 125.622 43.0555Z" fill="#0245CA"/>
<path d="M140.811 47.8129C140.748 48.2331 141.073 48.6113 141.498 48.6113H147.79C148.139 48.6113 148.433 48.3534 148.479 48.0082L153.399 10.903H153.538L158.458 48.0082C158.503 48.3534 158.798 48.6113 159.146 48.6113H164.744C165.169 48.6113 165.494 48.2331 165.431 47.8129L158.19 0.000221252H148.052L140.811 47.8129Z" fill="#0245CA"/>
<path d="M169.024 0H180.344C184.279 0 187.149 0.925926 188.955 2.77778C190.761 4.58333 191.663 7.38426 191.663 11.1806V14.1667C191.663 19.213 189.997 22.4074 186.663 23.75V23.8889C188.515 24.4444 189.811 25.5787 190.552 27.2917C191.339 29.0046 191.733 31.2963 191.733 34.1667V42.7083C191.733 44.0972 191.779 45.2315 191.872 46.1111C191.927 46.6114 192.033 47.1117 192.189 47.612C192.338 48.0919 192 48.6111 191.497 48.6111H185.28C184.985 48.6111 184.721 48.4259 184.633 48.145C184.44 47.53 184.307 46.9446 184.233 46.3889C184.14 45.6944 184.094 44.4444 184.094 42.6389V33.75C184.094 31.5278 183.723 29.9768 182.983 29.0972C182.288 28.2176 181.061 27.7778 179.302 27.7778H176.663V47.9167C176.663 48.3002 176.352 48.6111 175.969 48.6111H169.719C169.335 48.6111 169.024 48.3002 169.024 47.9167V0ZM179.441 20.8333C180.969 20.8333 182.103 20.4398 182.844 19.6528C183.631 18.8657 184.024 17.5463 184.024 15.6944V11.9444C184.024 10.1852 183.7 8.91204 183.052 8.125C182.45 7.33796 181.478 6.94445 180.136 6.94445H176.663V20.8333H179.441Z" fill="#0245CA"/>
<path d="M237.149 0H244.788V47.9167C244.788 48.3002 244.477 48.6111 244.094 48.6111H237.844C237.46 48.6111 237.149 48.3002 237.149 47.9167V0Z" fill="#1C64FE"/>
<path d="M248.954 0H258.537L265.968 29.0972H266.107V0H272.912V47.9167C272.912 48.3002 272.602 48.6111 272.218 48.6111H265.603C265.286 48.6111 265.01 48.3969 264.931 48.0903L255.899 13.125H255.76V47.9167C255.76 48.3002 255.449 48.6111 255.065 48.6111H249.649C249.265 48.6111 248.954 48.3002 248.954 47.9167V0Z" fill="#1C64FE"/>
<path d="M287.775 50C284.071 50 281.247 48.9583 279.302 46.875C277.358 44.7454 276.386 41.713 276.386 37.7778V12.2222C276.386 8.28704 277.358 5.27778 279.302 3.19444C281.247 1.06481 284.071 0 287.775 0C291.478 0 294.302 1.06481 296.247 3.19444C298.191 5.27778 299.164 8.28704 299.164 12.2222V16.3889H291.941V11.7361C291.941 8.54167 290.622 6.94444 287.983 6.94444C285.344 6.94444 284.025 8.54167 284.025 11.7361V38.3333C284.025 41.4815 285.344 43.0555 287.983 43.0555C290.622 43.0555 291.941 41.4815 291.941 38.3333V28.8194H288.122V21.875H299.164V37.7778C299.164 41.713 298.191 44.7454 296.247 46.875C294.302 48.9583 291.478 50 287.775 50Z" fill="#1C64FE"/>
<path d="M3.33105 0H11.0394L16.0394 37.7083H16.1783L21.1783 0H28.1922L20.9205 48.0206C20.8691 48.3601 20.5772 48.6111 20.2338 48.6111H11.2894C10.946 48.6111 10.6542 48.3601 10.6028 48.0206L3.33105 0Z" fill="#0245CA"/>
<path d="M58.5477 47.8129C58.484 48.2331 58.8093 48.6113 59.2343 48.6113H65.5266C65.8749 48.6113 66.1693 48.3534 66.2151 48.0082L71.1351 10.903H71.274L76.194 48.0082C76.2398 48.3534 76.5342 48.6113 76.8824 48.6113H82.4803C82.9053 48.6113 83.2306 48.2331 83.167 47.8129L75.9268 0.000221252H65.7879L58.5477 47.8129Z" fill="#0245CA"/>
<path d="M43.5943 50C39.8443 50 36.9739 48.9352 34.9832 46.8055C32.9924 44.6759 31.9971 41.6667 31.9971 37.7778V12.2222C31.9971 8.33333 32.9924 5.32407 34.9832 3.19444C36.9739 1.06481 39.8443 0 43.5943 0C47.3443 0 50.2147 1.06481 52.2054 3.19444C54.1961 5.32407 55.1915 8.33333 55.1915 12.2222V37.7778C55.1915 41.6667 54.1961 44.6759 52.2054 46.8055C50.2147 48.9352 47.3443 50 43.5943 50ZM43.5943 43.0555C46.2332 43.0555 47.5526 41.4583 47.5526 38.2639V11.7361C47.5526 8.54167 46.2332 6.94444 43.5943 6.94444C40.9554 6.94444 39.636 8.54167 39.636 11.7361V38.2639C39.636 41.4583 40.9554 43.0555 43.5943 43.0555Z" fill="#0245CA"/>
<path d="M196.478 0.694336L208.253 19.8795L220.651 0.694336H196.478Z" fill="#1C64FE"/>
<path d="M220.649 0.694336L232.523 18.6666C233.013 19.4074 233.013 20.3588 232.527 21.0997L220.851 38.9448L208.251 19.8831L220.649 0.694336Z" fill="#1C64FE"/>
<path d="M208.252 19.8795L196.009 38.9412L201.454 47.2755C202.28 48.5392 203.702 49.3055 205.227 49.3055H211.623C213.148 49.3055 214.571 48.5428 215.396 47.2791L220.852 38.9412L208.252 19.8795Z" fill="#0245CA"/>
</svg>
