<svg width="234" height="171" viewBox="0 0 234 171" fill="none" xmlns="http://www.w3.org/2000/svg">
<g clip-path="url(#clip0_164_18767)">
<path d="M282.001 146.156H221.572C221.343 169.75 217.92 193.205 211.396 215.882C224.7 219.435 237.538 224.544 249.646 231.102C269.525 207.143 280.904 177.271 282.001 146.156Z" fill="#626C85"/>
<path d="M146.041 136.076H211.493C211.237 113.315 207.897 90.695 201.57 68.8302C183.345 72.9866 164.731 75.2063 146.041 75.4524V136.076Z" fill="#626C85"/>
<path d="M146.041 0.398438V65.3727C163.661 65.1241 181.209 63.0595 198.406 59.2082C186.51 25.9693 167.606 3.46222 146.041 0.398438Z" fill="#626C85"/>
<path d="M146.041 206.779C164.731 207.028 183.345 209.247 201.57 213.404C207.897 191.539 211.237 168.916 211.493 146.156H146.041V206.779Z" fill="#626C85"/>
<path d="M249.646 51.1292C237.538 57.6874 224.7 62.7961 211.396 66.3496C217.92 89.0265 221.343 112.481 221.572 136.076H282.001C280.901 104.963 269.522 75.0906 249.646 51.1292Z" fill="#626C85"/>
<path d="M242.836 43.4833C242.688 43.3332 242.548 43.1708 242.403 43.0157C241.605 42.1938 240.778 41.4014 239.966 40.6016C239.031 39.6788 238.099 38.7461 237.134 37.8504C236.3 37.0727 235.436 36.3369 234.58 35.5618C233.603 34.6955 232.626 33.8219 231.622 32.9852C230.75 32.2494 229.857 31.5456 228.971 30.8394C227.962 30.0223 226.929 29.2103 225.89 28.4302C224.98 27.7436 224.057 27.0792 223.129 26.4147C222.076 25.6568 221.018 24.9013 219.945 24.1803C219.002 23.5453 218.045 22.9252 217.088 22.3174C215.998 21.616 214.91 20.9294 213.8 20.265C212.828 19.6818 211.846 19.1059 210.862 18.5473C209.735 17.9026 208.605 17.2775 207.466 16.6672C206.457 16.1628 205.45 15.614 204.441 15.1095C203.282 14.5238 202.113 13.9603 200.915 13.4066C199.906 12.9267 198.882 12.4591 197.844 12.0039C196.65 11.4748 195.444 10.9974 194.241 10.4929C193.203 10.0696 192.169 9.6513 191.121 9.25264C189.898 8.78507 188.657 8.34704 187.417 7.91885C186.369 7.54972 185.32 7.18305 184.257 6.83853C182.997 6.43002 181.737 6.05843 180.443 5.68438C179.395 5.37677 178.341 5.06424 177.281 4.7837C176.875 4.67297 176.461 4.58684 176.053 4.48102C190.971 18.9657 202.039 36.9423 208.263 56.7843C220.238 53.6294 231.833 49.1703 242.836 43.4833Z" fill="#626C85"/>
<path d="M0 136.076H60.429C60.6579 112.481 64.081 89.0265 70.6023 66.3496C57.3013 62.7986 44.4629 57.6898 32.3555 51.1292C12.4766 75.0881 1.09755 104.963 0 136.076Z" fill="#626C85"/>
<path d="M135.959 146.156H70.5078C70.7637 168.916 74.1007 191.539 80.43 213.404C98.6552 209.245 117.267 207.025 135.959 206.779V146.156Z" fill="#626C85"/>
<path d="M135.96 0.398438C114.396 3.46222 95.4891 25.9693 83.5957 59.2082C100.792 63.0619 118.341 65.1266 135.96 65.3727V0.398438Z" fill="#626C85"/>
<path d="M135.959 75.4524C117.269 75.2063 98.6552 72.9866 80.43 68.8302C74.1007 90.695 70.7637 113.315 70.5078 136.076H135.959V75.4524Z" fill="#626C85"/>
<path d="M105.909 4.47607C105.5 4.58189 105.092 4.66802 104.683 4.77384C103.615 5.0593 102.562 5.37675 101.499 5.68436C100.234 6.05349 98.9787 6.42508 97.7089 6.82866C96.6385 7.17565 95.5852 7.54477 94.532 7.91144C93.2991 8.34702 92.0637 8.78013 90.8431 9.24277C89.7899 9.64635 88.7514 10.0647 87.708 10.4929C86.5095 10.9974 85.3086 11.5018 84.1249 12.0039C83.0865 12.4591 82.0603 12.9365 81.0316 13.4164C79.8676 13.9652 78.7086 14.5238 77.5594 15.1046C76.5504 15.6189 75.5414 16.1455 74.535 16.682C73.4054 17.2873 72.2857 17.9075 71.1734 18.5424C70.1645 19.1059 69.1727 19.6842 68.2007 20.2748C67.1056 20.9343 66.0228 21.616 64.945 22.2903C63.9754 22.9104 63.0132 23.5355 62.0608 24.1802C60.9977 24.8963 59.9494 25.642 58.906 26.3876C57.9684 27.0594 57.0357 27.7288 56.1178 28.4055C55.0867 29.1807 54.1024 29.9879 53.0639 30.7926C52.1681 31.5087 51.265 32.2199 50.3889 32.9606C49.38 33.7924 48.4227 34.6537 47.4507 35.515C46.5894 36.2828 45.7207 37.0284 44.8791 37.8233C43.9218 38.7166 42.9891 39.6443 42.054 40.5647C41.2419 41.3669 40.415 42.1593 39.6177 42.9837C39.4725 43.1363 39.3323 43.3036 39.1797 43.4587C50.1699 49.1383 61.7508 53.595 73.713 56.7498C79.9341 36.9201 90.9981 18.9534 105.909 4.47607Z" fill="#626C85"/>
<path d="M32.3555 231.102C44.4629 224.544 57.3013 219.435 70.6023 215.882C64.081 193.205 60.6579 169.75 60.429 146.156H0C1.10001 177.268 12.4766 207.141 32.3555 231.102Z" fill="#626C85"/>
</g>
<defs>
<clipPath id="clip0_164_18767">
<rect width="282" height="282" fill="white"/>
</clipPath>
</defs>
</svg>
