<svg width="700" height="400" viewBox="0 0 700 400" fill="none" xmlns="http://www.w3.org/2000/svg">
<g clip-path="url(#clip0_337_990)">
<path fill-rule="evenodd" clip-rule="evenodd" d="M260.834 128.272C260.867 123.491 264.733 119.621 269.514 119.583H427.154C431.949 119.583 435.834 123.477 435.834 128.272V268.395C435.801 273.176 431.935 277.045 427.154 277.083H269.514C264.719 277.079 260.834 273.19 260.834 268.395V128.272ZM418.335 137.084H278.335V259.584L359.64 178.261C363.057 174.845 368.596 174.845 372.013 178.261L418.335 224.671V137.084ZM295.833 172.083C295.833 181.748 303.668 189.583 313.333 189.583C322.998 189.583 330.833 181.748 330.833 172.083C330.833 162.418 322.998 154.583 313.333 154.583C303.668 154.583 295.833 162.418 295.833 172.083Z" fill="#626C85"/>
</g>
<rect x="5" y="5" width="690" height="390" rx="15" stroke="#626C85" stroke-width="10"/>
<defs>
<clipPath id="clip0_337_990">
<rect width="700" height="400" rx="20" fill="white"/>
</clipPath>
</defs>
</svg>
