<svg xmlns="http://www.w3.org/2000/svg" width="163" height="41" viewBox="0 0 163 41" fill="none">
    <path d="M88.8164 40.4067C88.8176 40.2826 88.82 40.1585 88.82 40.0344C88.82 28.6539 88.82 17.2735 88.82 5.89336C88.82 5.77857 88.82 5.66348 88.82 5.51293C90.6506 5.4925 92.4653 5.50031 94.3101 5.49851C94.3101 6.16982 94.3101 6.81228 94.3101 7.49261C94.4081 7.43641 94.4685 7.40576 94.5256 7.3688C95.9202 6.4586 97.4431 5.89456 99.0895 5.64305C105.044 4.73284 110.559 8.48816 112.073 14.0603C113.75 20.2337 110.231 26.3143 104.227 28.0926C102.877 28.4926 101.496 28.6353 100.095 28.5581C98.1177 28.449 96.2453 27.9664 94.54 26.9249C94.5111 26.9075 94.4796 26.8951 94.4075 26.8597C94.4075 26.9916 94.4075 27.0932 94.4075 27.195C94.4075 29.718 94.4081 32.241 94.4069 34.764C94.4063 36.5408 94.4045 38.3173 94.4006 40.0942C94.4 40.1985 94.3747 40.3021 94.3612 40.4064C92.5119 40.4067 90.6645 40.4067 88.8164 40.4067ZM106.907 17.1347C106.913 13.8265 104.189 11.0908 100.885 11.0851C97.5179 11.0793 94.8257 13.7655 94.8164 17.1287C94.8077 20.3398 97.3632 23.1753 100.854 23.1801C104.282 23.1849 106.912 20.3782 106.907 17.1347Z" fill="white"/>
    <path d="M162.753 28.5725C162.721 29.0049 162.705 29.4397 162.653 29.8694C162.411 31.8482 161.705 33.6503 160.534 35.2613C158.909 37.497 156.766 38.9898 154.081 39.6804C153.068 39.9403 152.038 40.0359 150.994 39.9872C147.952 39.8457 145.418 38.6121 143.33 36.4212C143.282 36.3707 143.238 36.3157 143.211 36.2839C144.486 35.0083 145.752 33.7414 147.036 32.4576C147.081 32.5027 147.155 32.5751 147.228 32.6487C148.071 33.504 149.069 34.0881 150.249 34.3366C152.059 34.718 153.686 34.3003 155.113 33.1428C156.36 32.1307 157.076 30.7995 157.299 29.2135C157.363 28.7585 157.352 28.2924 157.362 27.8312C157.371 27.4141 157.364 26.9967 157.364 26.5459C157.283 26.5787 157.22 26.597 157.163 26.628C156.19 27.1575 155.162 27.5361 154.075 27.7443C153.164 27.9189 152.246 27.988 151.32 27.8916C147.536 27.4973 144.831 25.5023 143.009 22.2383C142.144 20.6877 141.711 19.001 141.634 17.2254C141.62 16.915 141.614 16.6043 141.614 16.2933C141.613 12.8195 141.613 9.34606 141.613 5.87231C141.613 5.75962 141.613 5.64724 141.613 5.51953C143.406 5.51953 145.161 5.51953 146.949 5.51953C146.954 5.6271 146.962 5.72957 146.962 5.83204C146.965 8.11522 146.967 10.3984 146.968 12.6813C146.969 14.0227 146.96 15.3644 146.971 16.7058C146.983 18.221 147.484 19.56 148.489 20.6974C149.246 21.555 150.185 22.1286 151.319 22.3258C152.723 22.5701 154 22.2293 155.12 21.3548C156.315 20.4224 157.007 19.1801 157.26 17.6963C157.333 17.2699 157.358 16.8312 157.36 16.3978C157.37 14.0702 157.366 11.7425 157.364 9.41488C157.364 8.21559 157.361 7.0163 157.359 5.81702C157.359 5.72266 157.359 5.62801 157.359 5.51923C159.158 5.51923 160.921 5.51923 162.711 5.51923C162.717 5.6262 162.726 5.72056 162.727 5.81492C162.728 6.45437 162.725 7.09413 162.728 7.73389C162.729 7.90998 162.745 8.08608 162.754 8.26247C162.753 15.0327 162.753 21.8026 162.753 28.5725Z" fill="white"/>
    <path d="M6.56463 0C6.81855 0.0360597 7.07577 0.0558924 7.32549 0.110282C9.5104 0.58597 10.9333 1.90065 11.6142 4.02516C11.6271 4.06573 11.6268 4.1102 11.6364 4.17782C11.549 4.18593 11.4742 4.19885 11.399 4.19915C10.5381 4.20035 9.67718 4.19705 8.81596 4.20306C8.6594 4.20396 8.56234 4.15949 8.46798 4.02486C7.95563 3.29135 7.23564 2.8971 6.34947 2.88748C4.98972 2.87306 3.97734 3.81031 3.74386 4.94048C3.51157 6.06524 3.88028 6.98446 4.7971 7.67681C4.90949 7.76155 4.98762 7.83187 4.98611 7.99203C4.9774 8.88842 4.98191 9.7851 4.98101 10.6818C4.98101 10.7338 4.97169 10.7858 4.96448 10.8633C4.82565 10.8257 4.69703 10.8014 4.57654 10.7566C2.48868 9.97772 1.2308 8.50498 0.851869 6.29723C0.832937 6.18604 0.787261 6.07936 0.753906 5.97089C0.753906 5.68661 0.753906 5.40234 0.753906 5.11807C0.792971 4.93868 0.838947 4.76048 0.870499 4.57958C1.26716 2.30001 3.06563 0.502432 5.35452 0.101869C5.56187 0.0655084 5.77011 0.0342567 5.97806 0.000600951C6.17398 -4.35882e-08 6.3693 0 6.56463 0Z" fill="white"/>
    <path d="M37.1644 5.52285C37.1644 5.66439 37.1644 5.77918 37.1644 5.89397C37.1628 10.5312 37.1577 15.1682 37.162 19.8055C37.1635 21.5941 36.6553 23.2225 35.6258 24.6754C34.1774 26.7193 32.2028 27.9742 29.7379 28.4105C26.7939 28.9316 24.1886 28.1581 21.9036 26.253C21.8492 26.2079 21.7948 26.1631 21.7311 26.1102C21.6788 26.1484 21.6274 26.1803 21.5827 26.2199C20.2352 27.4003 18.6814 28.1593 16.9141 28.4484C13.0212 29.0843 9.07535 27.2419 7.2354 23.73C6.61067 22.5376 6.29515 21.2644 6.29425 19.9167C6.29244 17.4117 6.29274 14.9065 6.29395 12.4012C6.29485 10.6869 6.29996 8.97226 6.30206 7.25793C6.30236 7.10708 6.29124 6.95593 6.29515 6.80508C6.31378 6.09139 6.84055 5.52195 7.55513 5.51173C8.94073 5.4922 10.3266 5.50693 11.7125 5.50813C11.7378 5.50813 11.7633 5.51955 11.8099 5.53067C11.8168 5.59317 11.8309 5.65988 11.8309 5.72689C11.8315 7.52146 11.8315 9.31573 11.83 11.1103C11.8276 13.953 11.8571 16.796 11.809 19.6381C11.775 21.6469 13.3583 22.7714 14.7052 22.9821C15.6502 23.1299 16.5472 23.0052 17.3715 22.5067C18.4169 21.8741 18.9713 20.9543 18.9704 19.7138C18.9674 15.4588 18.9686 11.2035 18.9713 6.94841C18.9713 6.78134 18.977 6.60735 19.0215 6.44839C19.1832 5.87143 19.6901 5.50843 20.3224 5.50603C21.2287 5.50242 22.1347 5.50512 23.0407 5.50512C23.4226 5.50512 23.8045 5.50512 24.1865 5.50512C24.2736 5.50512 24.3605 5.50512 24.487 5.50512C24.487 5.64155 24.487 5.75333 24.487 5.86542C24.487 10.4405 24.5143 15.0156 24.4737 19.5903C24.4572 21.4405 25.7163 22.5692 26.9907 22.894C28.4283 23.2603 29.724 22.9779 30.7908 21.9096C31.3527 21.3468 31.6292 20.6502 31.6283 19.8431C31.6238 16.4318 31.6259 13.0206 31.6268 9.60932C31.6268 8.71203 31.6295 7.81505 31.6322 6.91776C31.634 6.3339 31.8693 5.88225 32.4111 5.63314C32.5755 5.55771 32.769 5.51234 32.9496 5.51113C34.3 5.50122 35.6501 5.50572 37.0003 5.50663C37.0433 5.50572 37.0862 5.51444 37.1644 5.52285Z" fill="white"/>
    <path d="M132.515 7.46496C132.515 6.81348 132.515 6.17673 132.515 5.52285C134.344 5.52285 136.151 5.52285 137.977 5.52285C137.977 13.2039 137.977 20.8732 137.977 28.5572C136.131 28.5572 134.296 28.5572 132.425 28.5572C132.407 28.2807 132.418 28.0001 132.416 27.7203C132.414 27.4468 132.416 27.1731 132.416 26.8678C132.328 26.9093 132.266 26.9333 132.209 26.9673C130.918 27.732 129.527 28.2008 128.045 28.4208C127.163 28.5518 126.278 28.6059 125.39 28.5629C120.212 28.312 115.787 24.8073 114.646 19.7781C113.735 15.7656 114.721 12.1879 117.515 9.15556C119.193 7.33334 121.292 6.21039 123.721 5.72358C124.68 5.53126 125.653 5.46996 126.634 5.52946C128.716 5.65597 130.632 6.26928 132.373 7.42379C132.394 7.43822 132.419 7.44904 132.442 7.46015C132.45 7.46346 132.459 7.46166 132.515 7.46496ZM131.999 17.1224C131.995 13.7823 129.29 11.086 125.947 11.0842C122.743 11.0827 119.903 13.6895 119.906 17.1437C119.91 20.4675 122.598 23.1765 125.941 23.1801C129.452 23.184 132.014 20.3371 131.999 17.1224Z" fill="white"/>
    <path d="M62.7486 18.4779C57.0202 18.4779 51.312 18.4779 45.5704 18.4779C45.6019 18.6041 45.6191 18.6976 45.6491 18.7865C46.3934 20.9813 47.8677 22.3985 50.1301 22.9553C50.952 23.1575 51.7868 23.1266 52.6149 22.973C53.5537 22.7984 54.4519 22.5037 55.2761 22.0126C55.5268 21.8633 55.7627 21.6887 55.9826 21.5412C57.2811 22.8393 58.5795 24.1378 59.8963 25.4545C59.7707 25.5642 59.6156 25.7076 59.4525 25.841C58.0675 26.9712 56.4857 27.7032 54.762 28.1428C53.4996 28.4649 52.2159 28.623 50.9132 28.5656C48.3494 28.452 46.0563 27.5995 44.076 25.9621C41.974 24.2237 40.6194 22.0072 40.1209 19.3277C39.3819 15.353 40.4232 11.8681 43.2229 8.9422C44.7786 7.31651 46.6867 6.2801 48.8804 5.78397C49.9321 5.54598 51.0007 5.44591 52.0798 5.53306C55.9288 5.84467 58.8028 7.73 60.8375 10.9667C60.9604 11.162 61.073 11.3639 61.2002 11.5562C61.8961 12.6104 62.3174 13.7697 62.5232 15.0104C62.7041 16.0995 62.7712 17.1975 62.7642 18.3003C62.7642 18.3433 62.757 18.3868 62.7486 18.4779ZM56.0193 13.8C55.9823 13.724 55.9658 13.6838 55.9442 13.6465C55.534 12.9331 54.9916 12.3423 54.295 11.9018C53.1162 11.1563 51.8213 10.945 50.4631 11.1533C48.804 11.4078 47.4845 12.2438 46.4983 13.6029C46.459 13.6573 46.4262 13.7168 46.3736 13.8C49.6022 13.8 52.7937 13.8 56.0193 13.8Z" fill="white"/>
    <path d="M86.4908 18.4845C80.7555 18.4845 75.0466 18.4845 69.302 18.4845C69.3318 18.5993 69.3495 18.6916 69.3793 18.7796C70.1215 20.9744 71.5921 22.3946 73.8552 22.9526C74.6677 23.153 75.4926 23.1266 76.3132 22.977C77.3244 22.7921 78.2857 22.47 79.1611 21.9192C79.3558 21.7966 79.5403 21.6572 79.7161 21.5349C81.01 22.8408 82.3016 24.1447 83.5937 25.4482C83.615 25.4389 83.6367 25.4293 83.658 25.42C83.5889 25.4849 83.5216 25.5522 83.4504 25.6147C82.0681 26.8245 80.4637 27.6085 78.7022 28.0878C77.3313 28.461 75.9337 28.6392 74.5151 28.5602C71.9741 28.4184 69.7023 27.5529 67.7491 25.9119C65.5768 24.087 64.2438 21.7605 63.781 18.9644C62.7824 12.9325 66.5657 7.37933 72.1958 5.88315C73.3783 5.56913 74.5845 5.43842 75.8081 5.53247C79.4537 5.81344 82.2487 7.54551 84.2948 10.5361C84.6352 11.0334 84.9375 11.5577 85.2437 12.0776C85.7777 12.9839 86.0743 13.975 86.2537 15.0048C86.4451 16.1016 86.4854 17.2104 86.5106 18.3204C86.5121 18.3637 86.501 18.4064 86.4908 18.4845ZM79.7554 13.8028C79.7143 13.7225 79.6932 13.6754 79.6674 13.6309C79.2167 12.855 78.6127 12.23 77.8323 11.7837C76.6937 11.1328 75.4634 10.9553 74.1845 11.1548C72.5375 11.4117 71.2261 12.2411 70.2423 13.5864C70.1978 13.6474 70.1639 13.7159 70.1116 13.8028C73.3347 13.8028 76.5263 13.8028 79.7554 13.8028Z" fill="white"/>
</svg>